<svg width="25" height="25" viewBox="0 0 25 25" fill="none" xmlns="http://www.w3.org/2000/svg">
<g clip-path="url(#clip0_860_11074)">
<path d="M4.06217 12.5003C4.06217 10.7191 5.51009 9.27116 7.29134 9.27116H11.458V7.29199H7.29134C4.41634 7.29199 2.08301 9.62533 2.08301 12.5003C2.08301 15.3753 4.41634 17.7087 7.29134 17.7087H11.458V15.7295H7.29134C5.51009 15.7295 4.06217 14.2816 4.06217 12.5003ZM8.33301 13.542H16.6663V11.4587H8.33301V13.542ZM17.708 7.29199H13.5413V9.27116H17.708C19.4893 9.27116 20.9372 10.7191 20.9372 12.5003C20.9372 14.2816 19.4893 15.7295 17.708 15.7295H13.5413V17.7087H17.708C20.583 17.7087 22.9163 15.3753 22.9163 12.5003C22.9163 9.62533 20.583 7.29199 17.708 7.29199Z" fill="#323232"/>
</g>
<defs>
<clipPath id="clip0_860_11074">
<rect width="25" height="25" fill="white"/>
</clipPath>
</defs>
</svg>
