<svg width="25" height="25" viewBox="0 0 25 25" fill="none" xmlns="http://www.w3.org/2000/svg">
<g clip-path="url(#clip0_1002_8739)">
<path d="M17.1882 3.125C15.3757 3.125 13.6361 3.96875 12.5007 5.30208C11.3652 3.96875 9.62565 3.125 7.81315 3.125C4.60482 3.125 2.08398 5.64583 2.08398 8.85417C2.08398 12.7917 5.62565 16 10.9902 20.875L12.5007 22.2396L14.0111 20.8646C19.3757 16 22.9173 12.7917 22.9173 8.85417C22.9173 5.64583 20.3965 3.125 17.1882 3.125ZM12.6048 19.3229L12.5007 19.4271L12.3965 19.3229C7.43815 14.8333 4.16732 11.8646 4.16732 8.85417C4.16732 6.77083 5.72982 5.20833 7.81315 5.20833C9.41732 5.20833 10.9798 6.23958 11.5319 7.66667H13.4798C14.0215 6.23958 15.584 5.20833 17.1882 5.20833C19.2715 5.20833 20.834 6.77083 20.834 8.85417C20.834 11.8646 17.5632 14.8333 12.6048 19.3229Z" fill="black"/>
</g>
<defs>
<clipPath id="clip0_1002_8739">
<rect width="25" height="25" fill="white"/>
</clipPath>
</defs>
</svg>
