<svg width="75" height="36" viewBox="0 0 75 36" fill="none" xmlns="http://www.w3.org/2000/svg">
<g id="logo" clip-path="url(#clip0_852_5204)">
<path id="Vector" d="M56.6293 34.6218C56.1656 34.7626 55.6941 34.8665 55.218 34.9326C54.5519 35.0423 53.8797 35.0965 53.2068 35.0948C52.6119 35.1006 52.0176 35.0463 51.4309 34.9326C50.9501 34.8379 50.4951 34.6159 50.1019 34.284C49.7317 33.9548 49.447 33.5155 49.2787 33.0137C49.0612 32.3447 48.9612 31.6328 48.9846 30.9191V19.4191C49.0359 18.8762 48.98 18.327 48.8212 17.8123C48.6624 17.2976 48.4047 16.8307 48.0673 16.4461C47.4166 15.8649 46.6094 15.5637 45.7856 15.5948C45.2096 15.5892 44.6356 15.6756 44.0803 15.8515C43.6213 15.9852 43.1816 16.1946 42.7748 16.4732V34.6218C42.3071 34.7623 41.8317 34.8662 41.3517 34.9326C40.6896 35.0428 40.0214 35.097 39.3524 35.0948C38.777 35.0967 38.2026 35.0424 37.6352 34.9326C37.1332 34.8509 36.6566 34.6281 36.2474 34.284C35.8771 33.9519 35.5891 33.5139 35.4124 33.0137C35.1993 32.3434 35.0995 31.6324 35.1184 30.9191V0.959645L36.5885 0.675861C37.2341 0.556446 37.887 0.497692 38.5408 0.500186C39.1353 0.496551 39.7291 0.546252 40.3168 0.648834C40.7968 0.730467 41.2526 0.943682 41.6458 1.27046C42.0169 1.60162 42.3051 2.03993 42.4808 2.54073C42.6983 3.20975 42.7982 3.92166 42.7748 4.63532V9.70289C43.3562 9.46517 43.9492 9.26664 44.5507 9.10829C45.4135 8.87204 46.2983 8.75858 47.1852 8.77046C49.6853 8.5982 52.1513 9.50415 54.1007 11.311C54.9746 12.2958 55.6506 13.4883 56.0813 14.8048C56.512 16.1214 56.687 17.5302 56.594 18.9326L56.6293 34.6218Z" fill="#9A7CF7"/>
<path id="Vector_2" d="M31.7547 15.7296C31.0264 15.7245 30.3026 15.8616 29.6142 16.135C28.9654 16.4022 28.3697 16.8157 27.8618 17.3512C27.3611 17.9192 26.9616 18.5939 26.6857 19.3377C26.3761 20.2219 26.2242 21.1685 26.2388 22.1215C26.1796 23.0093 26.2923 23.9012 26.5689 24.7331C26.8454 25.5649 27.279 26.316 27.8383 26.9323C28.92 28.0193 30.3183 28.5982 31.7547 28.5539C32.5505 28.5724 33.3439 28.4493 34.1069 28.189C34.7064 27.9755 35.292 27.7136 35.8593 27.4052C36.3983 27.8222 36.8583 28.36 37.2118 28.9863C37.5106 29.6102 37.6569 30.3153 37.6352 31.0269C37.6361 31.7051 37.4711 32.3699 37.1593 32.9457C36.8474 33.5214 36.401 33.985 35.8711 34.2836C34.3653 35.1423 32.6928 35.5425 31.0138 35.4458C29.2662 35.4857 27.5261 35.17 25.8742 34.5134C24.4207 33.9234 23.085 33.0043 21.9461 31.8107C20.8483 30.6549 19.9816 29.2396 19.4057 27.662C18.7842 25.9507 18.476 24.1107 18.5001 22.2566C18.4603 20.2106 18.7886 18.1771 19.4645 16.2836C20.0544 14.6678 20.9551 13.2263 22.0989 12.0674C23.2241 10.9528 24.5316 10.1074 25.9448 9.58092C27.4427 9.03497 29.0074 8.77031 30.5786 8.79714C32.3241 8.67376 34.0626 9.14376 35.5771 10.1485C36.1003 10.505 36.5345 11.0108 36.8375 11.617C37.1404 12.2231 37.3018 12.909 37.3059 13.608C37.3104 14.2496 37.1728 14.882 36.9061 15.4458C36.6519 15.9835 36.3354 16.479 35.9652 16.9188C35.3651 16.6044 34.7484 16.3336 34.1187 16.108C33.3518 15.8455 32.5548 15.7179 31.7547 15.7296Z" fill="#F2CF3B"/>
<path id="Vector_3" d="M13.3017 35.5C11.6302 35.5176 9.96691 35.2302 8.37384 34.6486C6.91477 34.1172 5.5659 33.2479 4.41038 32.0946C3.26295 30.9042 2.35923 29.4367 1.76415 27.7973C1.08311 25.8768 0.750927 23.8166 0.787987 21.7432C0.745466 19.7306 1.07831 17.7309 1.76415 15.8784C2.3468 14.3325 3.21338 12.9495 4.30453 11.8243C5.35362 10.7819 6.57886 9.99975 7.9034 9.527C9.24039 9.02734 10.6374 8.77198 12.0433 8.77024C13.5206 8.75348 14.9891 9.03242 16.3831 9.59457C17.6246 10.1017 18.7703 10.8769 19.7585 11.8784C20.7023 12.8473 21.456 14.0357 21.9696 15.3648C22.4948 16.7496 22.7593 18.2463 22.7458 19.7567C22.7768 20.2502 22.7175 20.7457 22.5717 21.2112C22.4258 21.6767 22.1967 22.1019 21.899 22.4594C21.2386 23.1218 20.418 23.5367 19.5468 23.6486L8.39736 25.527C8.56119 26.0911 8.82575 26.6097 9.17409 27.0495C9.52244 27.4893 9.94689 27.8406 10.4203 28.0811C11.5244 28.6706 12.7313 28.9618 13.9486 28.9324C15.1411 28.9474 16.3294 28.7654 17.4769 28.3919C18.4149 28.1041 19.3164 27.6771 20.1584 27.1216C20.6369 27.5 21.0382 27.9934 21.3345 28.5675C21.6559 29.1595 21.827 29.8428 21.8284 30.5405C21.8478 31.2681 21.678 31.9858 21.3407 32.602C21.0035 33.2181 20.514 33.7049 19.9349 34C18.9262 34.6123 17.8313 35.0149 16.7006 35.1892C15.5758 35.3878 14.4398 35.4917 13.3017 35.5Z" fill="#E37B54"/>
<path id="Vector_4" d="M75 22.1216C75.0282 24.0708 74.7411 26.0091 74.1532 27.8378C73.6334 29.4167 72.8136 30.8425 71.7536 32.0114C70.6936 33.1802 69.4201 34.0627 68.0257 34.5946C66.4772 35.1984 64.8506 35.4954 63.2155 35.473C61.5761 35.4994 59.9463 35.1835 58.4052 34.5405C57.0139 33.9519 55.7472 33.0307 54.6887 31.8378C53.6528 30.6405 52.8509 29.2031 52.3365 27.6216C51.7362 25.8696 51.4251 24.0045 51.4192 22.1216C51.4003 20.2336 51.6916 18.3585 52.2777 16.5946C52.795 15.0147 53.5965 13.578 54.6299 12.3784C55.6904 11.1884 56.9565 10.2676 58.3464 9.67567C59.8874 9.03272 61.5173 8.71678 63.1567 8.74323C64.7978 8.71963 66.4287 9.04491 67.9669 9.70269C69.3554 10.2979 70.621 11.2183 71.6834 12.4054C72.7193 13.6028 73.5212 15.0401 74.0356 16.6216C74.658 18.368 74.9853 20.2346 75 22.1216Z" fill="#D8C5AD"/>
<path id="Vector_5" d="M3.11667 29.9053L0 35.0809L5.72761 32.5404L3.11667 29.9053Z" fill="#E37B54"/>
<path id="Vector_6" d="M69.9663 12.8513L72.1538 7.08105L66.9672 10.8648L69.9663 12.8513Z" fill="#D8C5AD"/>
<path id="Vector_7" d="M9.45585 17.6081C9.64422 17.6081 9.79692 17.4448 9.79692 17.2433C9.79692 17.0418 9.64422 16.8784 9.45585 16.8784C9.26749 16.8784 9.11478 17.0418 9.11478 17.2433C9.11478 17.4448 9.26749 17.6081 9.45585 17.6081Z" fill="black"/>
<path id="Vector_8" d="M37.8234 21.5674C37.9793 21.5674 38.1057 21.4283 38.1057 21.2566C38.1057 21.085 37.9793 20.9458 37.8234 20.9458C37.6675 20.9458 37.5412 21.085 37.5412 21.2566C37.5412 21.4283 37.6675 21.5674 37.8234 21.5674Z" fill="black"/>
<path id="Vector_9" d="M39.0466 21.0406C39.2025 21.0406 39.3288 20.9014 39.3288 20.7298C39.3288 20.5581 39.2025 20.4189 39.0466 20.4189C38.8907 20.4189 38.7643 20.5581 38.7643 20.7298C38.7643 20.9014 38.8907 21.0406 39.0466 21.0406Z" fill="black"/>
<path id="Vector_10" d="M58.3699 20.7701H58.0524C57.8906 20.7308 57.7378 20.6527 57.6041 20.5409C57.4703 20.4291 57.3586 20.2862 57.2762 20.1214C57.2107 19.9893 57.1697 19.8432 57.1555 19.6921C57.1413 19.541 57.1544 19.3881 57.1938 19.2431C57.199 19.221 57.2083 19.2005 57.2208 19.1829C57.2334 19.1653 57.2491 19.1509 57.2669 19.1407C57.2846 19.1305 57.3041 19.1247 57.3239 19.1237C57.3437 19.1227 57.3635 19.1265 57.382 19.1349C57.3998 19.1411 57.4163 19.1513 57.4307 19.1648C57.445 19.1784 57.4569 19.195 57.4657 19.2139C57.4744 19.2327 57.4798 19.2533 57.4816 19.2746C57.4834 19.2958 57.4815 19.3172 57.4761 19.3377C57.4475 19.4402 57.438 19.5486 57.4481 19.6556C57.4583 19.7627 57.4878 19.8661 57.5349 19.9593C57.5973 20.0836 57.6821 20.1912 57.7834 20.2751C57.8848 20.359 58.0005 20.4171 58.1229 20.4458C58.3526 20.5274 58.6005 20.5075 58.8181 20.39C59.0356 20.2725 59.2072 20.0659 59.299 19.8106C59.3124 19.7684 59.3394 19.7336 59.3744 19.7135C59.4094 19.6934 59.4498 19.6894 59.4872 19.7025C59.524 19.7179 59.5543 19.7488 59.5718 19.7891C59.5893 19.8293 59.5927 19.8757 59.5813 19.9187C59.4877 20.1929 59.3187 20.4245 59.1001 20.5782C58.8814 20.7319 58.625 20.7992 58.3699 20.7701Z" fill="black"/>
<path id="Vector_11" d="M58.0994 18.7297C58.0816 18.7235 58.0651 18.7133 58.0507 18.6998C58.0364 18.6862 58.0245 18.6696 58.0157 18.6507C58.007 18.6319 58.0016 18.6113 57.9998 18.59C57.998 18.5688 57.9999 18.5474 58.0053 18.527C58.0648 18.3439 58.0648 18.1424 58.0053 17.9594C57.9841 17.925 57.9558 17.8972 57.923 17.8783C57.7936 17.8783 57.5819 18.0675 57.4878 18.4053C57.4745 18.4476 57.4475 18.4824 57.4125 18.5025C57.3775 18.5226 57.3371 18.5265 57.2997 18.5134C57.2805 18.5074 57.2627 18.4969 57.2473 18.4824C57.232 18.4679 57.2194 18.4499 57.2105 18.4295C57.2017 18.4091 57.1966 18.3868 57.1958 18.364C57.1949 18.3412 57.1983 18.3184 57.2056 18.2972C57.3467 17.7972 57.6878 17.4594 57.9818 17.554C58.0405 17.567 58.0956 17.5958 58.1426 17.6381C58.1897 17.6804 58.2273 17.7349 58.2523 17.7972C58.3005 17.9276 58.3254 18.0678 58.3254 18.2094C58.3254 18.351 58.3005 18.4912 58.2523 18.6215C58.24 18.6558 58.2186 18.6847 58.1911 18.7041C58.1637 18.7235 58.1316 18.7325 58.0994 18.7297Z" fill="black"/>
<path id="Vector_12" d="M59.8636 19.1623C59.8458 19.1561 59.8292 19.1459 59.8149 19.1324C59.8005 19.1188 59.7886 19.1022 59.7799 19.0833C59.7712 19.0645 59.7657 19.0439 59.764 19.0226C59.7622 19.0014 59.764 18.98 59.7695 18.9595C59.829 18.7765 59.829 18.575 59.7695 18.392C59.7483 18.3576 59.72 18.3298 59.6872 18.3109C59.5813 18.3109 59.3461 18.5001 59.252 18.8379C59.2468 18.8599 59.2376 18.8804 59.225 18.8981C59.2124 18.9157 59.1967 18.9301 59.179 18.9403C59.1612 18.9505 59.1418 18.9563 59.1219 18.9573C59.1021 18.9583 59.0823 18.9544 59.0638 18.946C59.046 18.9399 59.0295 18.9297 59.0151 18.9162C59.0008 18.9026 58.9889 18.886 58.9802 18.8671C58.9714 18.8483 58.966 18.8277 58.9642 18.8064C58.9624 18.7852 58.9643 18.7637 58.9697 18.7433C59.1109 18.2298 59.4637 17.892 59.746 17.9866C59.8055 18.0014 59.8615 18.0308 59.9102 18.0728C59.9589 18.1148 59.9992 18.1683 60.0282 18.2298C60.1181 18.4949 60.1181 18.7891 60.0282 19.0541C60.0154 19.0908 59.9921 19.1215 59.9622 19.1411C59.9324 19.1607 59.8976 19.1682 59.8636 19.1623Z" fill="black"/>
<path id="Vector_13" d="M28.7086 14.7432C28.5494 14.7246 28.3979 14.6554 28.2711 14.5431C28.1443 14.4309 28.0474 14.2802 27.9912 14.108C27.9683 14.0894 27.9503 14.0639 27.9392 14.0343C27.9281 14.0047 27.9242 13.9721 27.9282 13.9402C27.9321 13.9083 27.9435 13.8782 27.9613 13.8532C27.9791 13.8283 28.0026 13.8095 28.0291 13.7988C28.0555 13.7882 28.0841 13.7861 28.1115 13.7929C28.139 13.7996 28.1643 13.8149 28.1846 13.837C28.205 13.8592 28.2197 13.8874 28.2271 13.9185C28.2345 13.9496 28.2342 13.9825 28.2264 14.0134C28.3558 14.3513 28.6146 14.4999 28.7439 14.4324C28.7695 14.4209 28.7924 14.4026 28.8108 14.3792C28.8291 14.3557 28.8425 14.3277 28.8498 14.2972C28.8808 14.2116 28.8968 14.1197 28.8968 14.027C28.8968 13.9342 28.8808 13.8423 28.8498 13.7567C28.84 13.7376 28.8341 13.7163 28.8325 13.6942C28.8308 13.6722 28.8335 13.65 28.8402 13.6293C28.847 13.6085 28.8577 13.5898 28.8715 13.5745C28.8854 13.5591 28.9021 13.5475 28.9203 13.5405C28.9369 13.5293 28.9555 13.5225 28.9747 13.5206C28.9939 13.5187 29.0132 13.5217 29.0312 13.5295C29.0493 13.5373 29.0656 13.5496 29.0789 13.5655C29.0923 13.5814 29.1024 13.6006 29.1085 13.6215C29.1636 13.7434 29.1972 13.8766 29.2073 14.0134C29.2174 14.1503 29.2038 14.2881 29.1673 14.4188C29.117 14.5663 29.0205 14.6868 28.8968 14.7567C28.8339 14.7652 28.7702 14.7606 28.7086 14.7432Z" fill="black"/>
<path id="Vector_14" d="M29.2967 12.919C29.1131 12.9149 28.9349 12.8468 28.7858 12.7238C28.6367 12.6007 28.5236 12.4284 28.4617 12.2298C28.4496 12.1885 28.4513 12.1434 28.4665 12.1034C28.4817 12.0635 28.5094 12.0314 28.544 12.0136C28.5625 12.0052 28.5822 12.0013 28.6021 12.0023C28.6219 12.0033 28.6414 12.0091 28.6591 12.0193C28.6769 12.0295 28.6926 12.0439 28.7052 12.0615C28.7177 12.0792 28.7269 12.0997 28.7322 12.1217C28.7831 12.2838 28.8849 12.4181 29.0177 12.4981C29.1505 12.5782 29.3046 12.5981 29.4496 12.5541C29.5108 12.5309 29.5672 12.4938 29.6157 12.4451C29.6642 12.3963 29.7037 12.3369 29.7319 12.2703C29.7914 12.1013 29.7914 11.9123 29.7319 11.7433C29.7178 11.7021 29.7186 11.6562 29.734 11.6156C29.7495 11.5751 29.7783 11.5432 29.8142 11.5271C29.8501 11.511 29.89 11.5119 29.9253 11.5296C29.9606 11.5474 29.9883 11.5805 30.0024 11.6217C30.0493 11.7477 30.0735 11.8833 30.0735 12.0203C30.0735 12.1574 30.0493 12.293 30.0024 12.419C29.9119 12.6338 29.7513 12.799 29.5554 12.8785L29.2967 12.919Z" fill="black"/>
<path id="Vector_15" d="M39.0113 23.2027C38.8698 23.2037 38.7297 23.1705 38.6 23.1053C38.4703 23.0401 38.354 22.9444 38.2586 22.8243C38.2313 22.7916 38.216 22.748 38.216 22.7027C38.216 22.6574 38.2313 22.6138 38.2586 22.5811C38.2882 22.5525 38.3257 22.5368 38.3644 22.5368C38.4031 22.5368 38.4406 22.5525 38.4703 22.5811C38.58 22.7283 38.7333 22.8235 38.9005 22.8485C39.0677 22.8734 39.2371 22.8263 39.3759 22.7162C39.4279 22.6662 39.4705 22.6044 39.5008 22.5346C39.5312 22.4649 39.5487 22.3887 39.5523 22.3108C39.5551 22.2086 39.5399 22.1069 39.5076 22.0117C39.4752 21.9164 39.4264 21.8297 39.3641 21.7568C39.351 21.7408 39.3407 21.722 39.3339 21.7015C39.3271 21.6809 39.3239 21.6591 39.3244 21.6371C39.325 21.6152 39.3293 21.5935 39.3371 21.5735C39.3449 21.5534 39.3561 21.5354 39.37 21.5203C39.3839 21.5052 39.4002 21.4934 39.4181 21.4856C39.436 21.4778 39.455 21.4741 39.4741 21.4747C39.4932 21.4753 39.5121 21.4803 39.5295 21.4892C39.547 21.4982 39.5627 21.5111 39.5758 21.527C39.6672 21.6334 39.7385 21.7603 39.785 21.8999C39.8316 22.0394 39.8525 22.1886 39.8463 22.3378C39.8385 22.46 39.8095 22.5791 39.761 22.6882C39.7125 22.7972 39.6456 22.8941 39.5641 22.973C39.4096 23.1229 39.2135 23.2044 39.0113 23.2027Z" fill="black"/>
<path id="Vector_16" d="M11.761 17.1893C11.5778 17.1834 11.4004 17.1146 11.2516 16.9917C11.1027 16.8689 10.9893 16.6977 10.926 16.5001C10.9139 16.4587 10.9156 16.4137 10.9308 16.3737C10.9461 16.3338 10.9737 16.3017 11.0083 16.2839C11.0457 16.266 11.0878 16.2659 11.1253 16.2836C11.1628 16.3013 11.1927 16.3355 11.2082 16.3785C11.2544 16.545 11.355 16.6844 11.4887 16.7676C11.6225 16.8507 11.7791 16.8711 11.9257 16.8244C12.05 16.7717 12.1514 16.6649 12.2079 16.5271C12.2667 16.3626 12.2667 16.1781 12.2079 16.0136C12.2002 15.9923 12.1962 15.9695 12.1962 15.9464C12.1961 15.9233 12.2 15.9005 12.2077 15.8791C12.2153 15.8578 12.2266 15.8384 12.2407 15.8221C12.2549 15.8057 12.2717 15.7927 12.2903 15.7839C12.3087 15.7755 12.3285 15.7716 12.3484 15.7726C12.3682 15.7736 12.3876 15.7794 12.4054 15.7896C12.4231 15.7998 12.4388 15.8142 12.4514 15.8318C12.464 15.8495 12.4732 15.87 12.4784 15.892C12.5279 16.0148 12.5536 16.1485 12.5536 16.2839C12.5536 16.4192 12.5279 16.553 12.4784 16.6758C12.436 16.7855 12.3745 16.8841 12.2976 16.9655C12.2208 17.0468 12.1302 17.1092 12.0315 17.1487C11.9436 17.1777 11.8524 17.1913 11.761 17.1893Z" fill="black"/>
<path id="Vector_17" d="M26.8975 13.7839C26.7139 13.7798 26.5357 13.7117 26.3866 13.5886C26.2374 13.4655 26.1244 13.2933 26.0624 13.0947C26.0503 13.0533 26.0521 13.0083 26.0673 12.9683C26.0825 12.9283 26.1101 12.8963 26.1447 12.8784C26.1632 12.87 26.183 12.8662 26.2028 12.8672C26.2227 12.8682 26.2421 12.8739 26.2599 12.8842C26.2776 12.8944 26.2933 12.9087 26.3059 12.9264C26.3185 12.944 26.3277 12.9645 26.3329 12.9866C26.3838 13.1486 26.4857 13.2829 26.6185 13.363C26.7513 13.443 26.9054 13.463 27.0503 13.419C27.1115 13.3957 27.168 13.3587 27.2165 13.3099C27.265 13.2612 27.3044 13.2018 27.3326 13.1352C27.3921 12.9662 27.3921 12.7772 27.3326 12.6082C27.3251 12.5878 27.3212 12.5659 27.3213 12.5438C27.3214 12.5217 27.3255 12.4999 27.3332 12.4797C27.3409 12.4594 27.3521 12.4412 27.3662 12.4261C27.3802 12.411 27.3968 12.3994 27.4149 12.392C27.4509 12.3781 27.4901 12.3801 27.5249 12.3975C27.5597 12.415 27.5876 12.4468 27.6031 12.4866C27.65 12.6125 27.6742 12.7482 27.6742 12.8852C27.6742 13.0222 27.65 13.1579 27.6031 13.2839C27.5127 13.4987 27.352 13.6638 27.1562 13.7433L26.8975 13.7839Z" fill="black"/>
<path id="Vector_18" d="M11.0436 19.0811C10.8621 19.0829 10.6844 19.022 10.5334 18.9063C10.3824 18.7907 10.2651 18.6256 10.1968 18.4324C10.1849 18.3875 10.1879 18.3392 10.2053 18.2967C10.2227 18.2543 10.2532 18.2207 10.2909 18.2027C10.3283 18.1896 10.3687 18.1935 10.4037 18.2136C10.4387 18.2337 10.4657 18.2685 10.4791 18.3108C10.5392 18.4755 10.6518 18.6078 10.7938 18.6806C10.9358 18.7534 11.0966 18.7613 11.2435 18.7027C11.3911 18.6452 11.5134 18.5241 11.5846 18.3648C11.6376 18.2131 11.6376 18.0436 11.5846 17.8919C11.5771 17.8715 11.5732 17.8496 11.5733 17.8275C11.5734 17.8054 11.5774 17.7836 11.5852 17.7633C11.5929 17.7431 11.6041 17.7249 11.6182 17.7098C11.6322 17.6947 11.6488 17.6831 11.6669 17.6756C11.7029 17.6618 11.7421 17.6637 11.7769 17.6812C11.8117 17.6987 11.8396 17.7304 11.8551 17.7702C11.8985 17.8854 11.9208 18.0096 11.9208 18.1351C11.9208 18.2606 11.8985 18.3848 11.8551 18.5C11.8023 18.6242 11.7282 18.735 11.6373 18.8255C11.5463 18.9161 11.4404 18.9846 11.3259 19.027C11.234 19.0582 11.1392 19.0763 11.0436 19.0811Z" fill="black"/>
</g>
<defs>
<clipPath id="clip0_852_5204">
<rect width="75" height="35" fill="white" transform="translate(0 0.5)"/>
</clipPath>
</defs>
</svg>
