<svg width="25" height="25" viewBox="0 0 25 25" fill="none" xmlns="http://www.w3.org/2000/svg">
<g clip-path="url(#clip0_860_11088)">
<path d="M16.1455 11.458C17.0085 11.458 17.708 10.7585 17.708 9.89551C17.708 9.03256 17.0085 8.33301 16.1455 8.33301C15.2826 8.33301 14.583 9.03256 14.583 9.89551C14.583 10.7585 15.2826 11.458 16.1455 11.458Z" fill="#323232"/>
<path d="M8.85449 11.458C9.71744 11.458 10.417 10.7585 10.417 9.89551C10.417 9.03256 9.71744 8.33301 8.85449 8.33301C7.99155 8.33301 7.29199 9.03256 7.29199 9.89551C7.29199 10.7585 7.99155 11.458 8.85449 11.458Z" fill="#323232"/>
<path d="M12.4893 2.08301C6.73926 2.08301 2.08301 6.74967 2.08301 12.4997C2.08301 18.2497 6.73926 22.9163 12.4893 22.9163C18.2497 22.9163 22.9163 18.2497 22.9163 12.4997C22.9163 6.74967 18.2497 2.08301 12.4893 2.08301ZM12.4997 20.833C7.89551 20.833 4.16634 17.1038 4.16634 12.4997C4.16634 7.89551 7.89551 4.16634 12.4997 4.16634C17.1038 4.16634 20.833 7.89551 20.833 12.4997C20.833 17.1038 17.1038 20.833 12.4997 20.833ZM12.4997 14.583C10.0726 14.583 7.99968 16.0934 7.16634 18.2288H8.90593C9.62468 16.9893 10.958 16.1455 12.4997 16.1455C14.0413 16.1455 15.3643 16.9893 16.0934 18.2288H17.833C16.9997 16.0934 14.9268 14.583 12.4997 14.583Z" fill="#323232"/>
</g>
<defs>
<clipPath id="clip0_860_11088">
<rect width="25" height="25" fill="white"/>
</clipPath>
</defs>
</svg>
