<svg width="25" height="25" viewBox="0 0 25 25" fill="none" xmlns="http://www.w3.org/2000/svg">
<g clip-path="url(#clip0_860_11081)">
<path d="M10.9792 11.458L10.4167 10.8955L7.85417 8.33301L6.25 6.72884L2.47917 2.95801L1.32292 1.80176L0 3.12467L2.09375 5.21842L2.08333 22.9163L6.25 18.7497H15.625L21.5937 24.7184L22.9167 23.3955L18.2708 18.7497L10.9792 11.458ZM8.33333 14.583H6.25V12.4997H8.33333V14.583ZM6.25 11.458V9.37467L8.33333 11.458H6.25ZM20.8333 2.08301H4.25L10.4167 8.24967V6.24967H18.75V8.33301H10.5L11.5417 9.37467H18.75V11.458H13.625L20.9062 18.7393C22.0208 18.6976 22.9167 17.7913 22.9167 16.6663V4.16634C22.9167 3.02051 21.9792 2.08301 20.8333 2.08301Z" fill="#323232"/>
</g>
<defs>
<clipPath id="clip0_860_11081">
<rect width="25" height="25" fill="white"/>
</clipPath>
</defs>
</svg>
