<svg width="61" height="45" viewBox="0 0 61 45" fill="none" xmlns="http://www.w3.org/2000/svg">
<path fill-rule="evenodd" clip-rule="evenodd" d="M34.1458 24.5833H33.3229L33.0312 24.3021C34.0521 23.1146 34.6667 21.5729 34.6667 19.8958C34.6667 16.1562 31.6354 13.125 27.8958 13.125C24.1562 13.125 21.125 16.1562 21.125 19.8958C21.125 23.6354 24.1562 26.6667 27.8958 26.6667C29.5729 26.6667 31.1146 26.0521 32.3021 25.0312L32.5833 25.3229V26.1458L37.7917 31.3438L39.3438 29.7917L34.1458 24.5833ZM27.8958 24.5833C25.3021 24.5833 23.2083 22.4896 23.2083 19.8958C23.2083 17.3021 25.3021 15.2083 27.8958 15.2083C30.4896 15.2083 32.5833 17.3021 32.5833 19.8958C32.5833 22.4896 30.4896 24.5833 27.8958 24.5833Z" fill="#C4C4C4"/>
</svg>
