<svg width="25" height="25" viewBox="0 0 25 25" fill="none" xmlns="http://www.w3.org/2000/svg">
<g clip-path="url(#clip0_860_11060)">
<path d="M15.6253 12.5003C17.9274 12.5003 19.792 10.6357 19.792 8.33366C19.792 6.03158 17.9274 4.16699 15.6253 4.16699C13.3232 4.16699 11.4587 6.03158 11.4587 8.33366C11.4587 10.6357 13.3232 12.5003 15.6253 12.5003ZM6.25033 10.417V7.29199H4.16699V10.417H1.04199V12.5003H4.16699V15.6253H6.25033V12.5003H9.37533V10.417H6.25033ZM15.6253 14.5837C12.8441 14.5837 7.29199 15.9795 7.29199 18.7503V20.8337H23.9587V18.7503C23.9587 15.9795 18.4066 14.5837 15.6253 14.5837Z" fill="#323232"/>
</g>
<defs>
<clipPath id="clip0_860_11060">
<rect width="25" height="25" fill="white"/>
</clipPath>
</defs>
</svg>
